<svg id="Layer_1" data-name="Layer 1" xmlns="http://www.w3.org/2000/svg" viewBox="0 0 799.2 281.44"><defs><style>.cls-1{fill:#ff7f3e;}.cls-2{fill:#2a629a;}.cls-3{fill:#003285;}.cls-4{font-size:300px;font-family:Harabara;}</style></defs><title>logo_api</title><path class="cls-1" d="M595.16,137.88s60.37-85.31,98.37-68.94a32,32,0,0,1,15.15,14.28,6.07,6.07,0,0,0,8.69,2.13c6.56-4.38,17.29-9.82,25.25-5.33,7,4,12.82-5.11,15.78-11.25a6.09,6.09,0,0,0-2.42-7.9,106.52,106.52,0,0,0-12.23-6.12,6.06,6.06,0,0,1-2.9-2.55L723.92,22.88a6.06,6.06,0,0,0-5.25-3H686.08a6,6,0,0,0-5.25,3L662.78,54.13l.1.17a105.62,105.62,0,0,0-28.54,17.38l-.08-.12-36,1.53a6.05,6.05,0,0,0-5.12,3.25L578,105.22a6.08,6.08,0,0,0,.26,6.06l16.9,26.6Z" transform="translate(-28.11 -12.74)"/><path class="cls-1" d="M808.34,152.07q0-5-.45-9.82a6.09,6.09,0,0,1,.89-3.76l17.62-28.38a6.07,6.07,0,0,0,.2-6.07L811.22,75.33a6,6,0,0,0-5.17-3.2l-16.44-.48a6.07,6.07,0,0,0-6.24,6.22c.2,7.81-1.45,20.49-13.56,24.59-17.95,6.07,7.39,1.58,4.75,44.07s-9.5,61.23-13.72,66.78c-1.6,2.1-21.38,21.64-30.36,18.74-11.94-3.87,17.16-59.12,17.42-89.8,0-3.42-2.84-5.73-5.18-3.44a5.38,5.38,0,0,1-.64.52c-2.77,2-17.67,12.08-34.5,13.81a6.07,6.07,0,0,0-5.36,5c-3,16.61-17,54.91-25.58,52.3-16.89-4,1.32-22.17,2.9-90.79,0-8.66-5.48-14.19-15.4-9.06l-.34.16c-26.61,11.5-73.16,69-84.32,83.12a6.11,6.11,0,0,0-.59,6.63l15.17,28.32a6.07,6.07,0,0,0,5.15,3.2l33.87,1.09a6,6,0,0,1,3.6,1.34,105.78,105.78,0,0,0,26.39,15.52l0,0,18,31.25a6.07,6.07,0,0,0,5.26,3h32.58a6,6,0,0,0,5.25-3l17-29.4a6,6,0,0,1,2.88-2.54,105.68,105.68,0,0,0,24.16-14.35,6.11,6.11,0,0,1,3.65-1.31l33.48-.61a6.06,6.06,0,0,0,5.2-3.13l15.77-28.51a6,6,0,0,0-.11-6.06L808.67,166.2a6.12,6.12,0,0,1-.84-3.71Q808.34,157.35,808.34,152.07Z" transform="translate(-28.11 -12.74)"/><circle class="cls-2" cx="71.14" cy="20" r="20"/><circle class="cls-3" cx="20.14" cy="20" r="20"/><circle class="cls-1" cx="122.14" cy="20" r="20"/><text class="cls-4" transform="translate(3.6 215.82)">epay</text><path class="cls-3" d="M771.24,72.11s-23.35,15.12-8,19.63S771.24,72.11,771.24,72.11Z" transform="translate(-28.11 -12.74)"/><path d="M582.42,177.94c21.9-33.52,72.84-88.42,96.6-82.61s-1.32,101.61-1.32,101.61,48.82-126.16,3.43-117.71S597.46,144.16,582.42,177.94Z" transform="translate(-28.11 -12.74)"/><path d="M704.09,114.33c-2.92,2.41,34.58-47.5,42-12.67,6.3,29.71-30.62,49.1-38.54,40.39-3.26-3.59-2.11-28.51,44.34-26.93,25,.86,8.57,71.92,4.71,87.34a9.05,9.05,0,0,1-3,4.81L733.65,223.6s43.62-97.92,14-97.39c-29.3.53-39.24,11.12-34.31,13.2,11.87,5,28.27-35.63,23-41.44C730.75,91.9,713.06,106.94,704.09,114.33Z" transform="translate(-28.11 -12.74)"/></svg>