<svg id="Layer_1" data-name="Layer 1" xmlns="http://www.w3.org/2000/svg" xmlns:xlink="http://www.w3.org/1999/xlink" viewBox="0 0 64 64"><defs><style>.cls-1{stroke:#fff;stroke-miterlimit:10;stroke-width:2px;fill:url(#linear-gradient);}</style><linearGradient id="linear-gradient" x1="3.83" y1="40.31" x2="63.97" y2="25.24" gradientUnits="userSpaceOnUse"><stop offset="0" stop-color="#c895a7"/><stop offset="0.98" stop-color="#a100ff"/></linearGradient></defs><title>favicon</title><path class="cls-1" d="M64,33A31,31,0,0,1,16.39,59.18L27,44.78H41s2.67,3.33,6.42,2.21a5.13,5.13,0,0,0-.09-10A5.6,5.6,0,0,0,41,40H3.08A20.94,20.94,0,0,1,2,33,31,31,0,0,1,53,9.34L44.34,21.13H25.85a5.61,5.61,0,0,0-6.31-3.45c-6.47,1-6.4,10.46.26,11,4.52.35,5.92-2.83,5.92-2.83H63.13A29.62,29.62,0,0,1,64,33Z" transform="translate(-1 -1)"/></svg>