<svg xmlns="http://www.w3.org/2000/svg" viewBox="0 0 909.15 746.07"><defs><style>.cls-1{fill:#f655ff;}.cls-2,.cls-5{fill:none;}.cls-2{stroke:#fff;}.cls-17,.cls-18,.cls-19,.cls-2,.cls-22,.cls-4,.cls-5,.cls-6,.cls-7,.cls-8,.cls-9{stroke-miterlimit:10;}.cls-2,.cls-6{stroke-width:15px;}.cls-3{fill:#ccc;}.cls-4,.cls-6{fill:#feffeb;}.cls-22,.cls-4,.cls-5,.cls-7,.cls-8,.cls-9{stroke:#000;}.cls-4,.cls-5{stroke-width:14px;}.cls-6{stroke:#feffeb;}.cls-7{fill:red;}.cls-7,.cls-8,.cls-9{stroke-width:12px;}.cls-8{fill:#ff0;}.cls-9{fill:#7ac943;}.cls-10,.cls-14{fill:#fff;}.cls-11{font-size:48px;font-family:Rockwell;}.cls-12,.cls-13,.cls-14{font-size:72px;}.cls-13{letter-spacing:-0.02em;}.cls-14{font-family:Rockwell-BoldItalic, Rockwell;font-weight:700;font-style:italic;}.cls-15{letter-spacing:-0.01em;}.cls-16{letter-spacing:-0.04em;}.cls-17{fill:#22b573;}.cls-17,.cls-18{stroke:#ccc;}.cls-18{fill:#fffaa4;}.cls-19{fill:lime;stroke:#009245;stroke-width:4px;}.cls-20,.cls-22{fill:#d2fffb;}.cls-21{fill:#777;}.cls-22{stroke-width:8px;}</style></defs><title>tko</title><g id="Layer_1" data-name="Layer 1"><path class="cls-1" d="M125.22,535.79c-167-33-142-216-34-243,53-162,224-149,224-149,77-226,453-173,445,71,59,24,133,81,101,228,63,76,37,230-122,198,0,0-86,108-210,32C514.22,741.79,147.22,823.79,125.22,535.79Z" transform="translate(0 0)"/><path class="cls-2" d="M494.22,370.29" transform="translate(0 0)"/><path class="cls-2" d="M481.22,370.29" transform="translate(0 0)"/></g><g id="Layer_5" data-name="Layer 5"><path class="cls-3" d="M566.15,484.29c-36.08-38.41-28.35-130.87,78.6-129.45-6.44-45.52,70.88-108.11,121.13-29.87C838,282.29,864,354.86,852.22,370.49c-6.45,8.53-21.91,19.91-21.91,19.91,38.66-39.83,114.69,37,43.81,91.05Z" transform="translate(0 0)"/><path d="M570.39,480.05c-13.77-14.84-19.54-36.54-17.18-56.53,2.71-23,17.08-42.06,37.67-52.32,16.59-8.26,35.55-10.53,53.87-10.36,2.94,0,6.42-2.79,6-6-2.37-18.21,8.25-35.49,21.71-46.9,15.21-12.89,36.37-18.24,55.18-10.36,14.14,5.93,24.86,17.83,33.06,30.42a6.12,6.12,0,0,0,8.21,2.15c19.29-11.26,45.69-19.6,64.51-2.82a47.76,47.76,0,0,1,13,19.43,51.93,51.93,0,0,1,2.34,9.69,37.64,37.64,0,0,1,.14,4.63,8.49,8.49,0,0,1-.42,3.21c-.11.46-.94,2.56-.26,1.09a8.61,8.61,0,0,1-.87,1.61,62,62,0,0,1-7.27,7.6,151.49,151.49,0,0,1-12.82,10.63l7.27,9.43c12.5-12.58,30.4-11.19,43.91-.85,14.75,11.31,22.11,30.87,17.18,48.93-3.92,14.36-14.25,25.56-25.76,34.47l4.24-1.75-104.29,1-166,1.53-37.72.35c-7.72.07-7.74,12.07,0,12l55.43-.51,117.51-1.09,106.38-1,26-.24c4.7,0,7.41-2.06,11.22-5.29,10.41-8.86,19.08-20,23.51-33.08,7.07-20.8.86-44-14.47-59.46-13.82-13.94-34.9-21-53.41-12.37a43.31,43.31,0,0,0-12.29,8.89c-4.63,4.66,1.63,13.59,7.27,9.43,4.56-3.37,9-6.94,13.23-10.69,4.44-3.94,9.67-8.35,12.2-13.85,3.42-7.42,2.41-16.52.28-24.15-5.87-21.13-23.1-38-45.2-40.76-18-2.23-35.73,4.74-51,13.65l8.21,2.15c-15.41-23.65-39.58-43.4-69.41-39.67-23.14,2.9-44,18.29-55.26,38.54-5.69,10.24-9.17,22.26-7.64,34l6-6c-32.64-.3-67.63,8.13-88.29,35.32-15,19.77-19.06,46.16-13,70a79.47,79.47,0,0,0,18.43,34.37C567.17,494.21,575.64,485.71,570.39,480.05Z" transform="translate(0 0)"/></g><g id="Layer_2" data-name="Layer 2"><rect class="cls-4" x="218.72" y="148.29" width="472" height="460" rx="79.5"/><path d="M405.22,251.79v256c0,7.72,12,7.74,12,0v-256c0-7.72-12-7.73-12,0Z" transform="translate(0 0)"/><path d="M227.22,226.29h329c7.73,0,7.74-12,0-12h-329c-7.72,0-7.73,12,0,12Z" transform="translate(0 0)"/><path d="M341.22,541.29H644.48c14,0,28.17.65,42.15,0h.59c7.73,0,7.74-12,0-12H384c-14,0-28.17-.65-42.15,0h-.6c-7.72,0-7.73,12,0,12Z" transform="translate(0 0)"/><path d="M254.63,280.29h121c7.72,0,7.73-12,0-12h-121c-7.72,0-7.74,12,0,12Z" transform="translate(0 0)"/><path d="M255.22,384.29h121c7.73,0,7.74-12,0-12h-121c-7.72,0-7.73,12,0,12Z" transform="translate(0 0)"/><path d="M254.22,489.29h121c7.73,0,7.74-12,0-12h-121c-7.72,0-7.73,12,0,12Z" transform="translate(0 0)"/><path d="M255.22,437.29h121c7.73,0,7.74-12,0-12h-121c-7.72,0-7.73,12,0,12Z" transform="translate(0 0)"/><path d="M255.22,333.29h121c7.73,0,7.74-12,0-12h-121c-7.72,0-7.73,12,0,12Z" transform="translate(0 0)"/><rect class="cls-5" x="459.3" y="252.72" width="193" height="109"/><line class="cls-6" x1="507.95" y1="362" x2="529.95" y2="362"/><line class="cls-6" x1="475.65" y1="362" x2="488.65" y2="362"/><path d="M447.19,434.72h77c7.73,0,7.74-12,0-12h-77c-7.72,0-7.73,12,0,12Z" transform="translate(0 0)"/><path d="M448.19,486.72h77c7.73,0,7.74-12,0-12h-77c-7.72,0-7.73,12,0,12Z" transform="translate(0 0)"/><rect class="cls-5" x="557.19" y="400.22" width="96" height="104"/><circle class="cls-7" cx="284.22" cy="185.79" r="15"/><circle class="cls-8" cx="335.22" cy="184.79" r="15"/><circle class="cls-9" cx="385.22" cy="185.79" r="15"/><path d="M590.3,225.22h41c7.72,0,7.73-12,0-12h-41c-7.73,0-7.74,12,0,12Z" transform="translate(0 0)"/><path d="M659.3,225.22h32c7.72,0,7.73-12,0-12h-32c-7.73,0-7.74,12,0,12Z" transform="translate(0 0)"/><path class="cls-10" d="M542.22,90.29h125c7.73,0,7.74-12,0-12h-125c-7.72,0-7.73,12,0,12Z" transform="translate(0 0)"/><path class="cls-10" d="M641.22,115.29h97c7.73,0,7.74-12,0-12h-97c-7.72,0-7.73,12,0,12Z" transform="translate(0 0)"/><path class="cls-10" d="M618.22,67.29h84c7.73,0,7.74-12,0-12h-84c-7.72,0-7.73,12,0,12Z" transform="translate(0 0)"/><path class="cls-10" d="M695.22,90.29h27c7.73,0,7.74-12,0-12h-27c-7.72,0-7.73,12,0,12Z" transform="translate(0 0)"/><path class="cls-10" d="M647.22,140.29h30c7.73,0,7.74-12,0-12h-30c-7.72,0-7.73,12,0,12Z" transform="translate(0 0)"/><path class="cls-10" d="M560.22,115.29h30c7.73,0,7.74-12,0-12h-30c-7.72,0-7.73,12,0,12Z" transform="translate(0 0)"/><path class="cls-10" d="M610.8,115.29h10a6,6,0,0,0,0-12h-10a6,6,0,0,0,0,12Z" transform="translate(0 0)"/></g><g id="Layer_6" data-name="Layer 6"><path class="cls-10" d="M8.8,387.86h85c7.72,0,7.73-12,0-12H8.8c-7.73,0-7.74,12,0,12Z" transform="translate(0 0)"/><path class="cls-10" d="M67.8,412.86h97c7.72,0,7.73-12,0-12h-97c-7.73,0-7.74,12,0,12Z" transform="translate(0 0)"/><path class="cls-10" d="M44.8,364.86h84c7.72,0,7.73-12,0-12h-84c-7.73,0-7.74,12,0,12Z" transform="translate(0 0)"/><path class="cls-10" d="M121.8,387.86h27c7.72,0,7.73-12,0-12h-27c-7.73,0-7.74,12,0,12Z" transform="translate(0 0)"/><path class="cls-10" d="M50.8,437.86h30c7.72,0,7.73-12,0-12h-30c-7.73,0-7.74,12,0,12Z" transform="translate(0 0)"/><path class="cls-10" d="M5.8,412.86h11c7.72,0,7.73-12,0-12H5.8c-7.73,0-7.74,12,0,12Z" transform="translate(0 0)"/><path class="cls-10" d="M37.37,412.86h10a6,6,0,1,0,0-12h-10a6,6,0,0,0,0,12Z" transform="translate(0 0)"/><path class="cls-10" d="M95.22,342.29h33c7.73,0,7.74-12,0-12h-33c-7.72,0-7.73,12,0,12Z" transform="translate(0 0)"/></g><g id="Layer_4" data-name="Layer 4"><path class="cls-3" d="M119.22,631.79c-28-27-22-92,61-91-5-32,55-76,94-21,56-30,76.16,21,67,32-5,6-17,14-17,14,30-28,89,26,34,64Z" transform="translate(0 0)"/><path d="M123.47,627.55a45.61,45.61,0,0,1-13-38.13c2.14-16.34,13.81-29,28.7-35.62,12.82-5.68,27.17-7.11,41-7,4.31,0,6.31-3.84,5.79-7.59-2.2-15.81,14.08-30.7,27.27-36.15,21.8-9,42.69,1.68,55.76,19.77,2,2.72,5.11,3.79,8.21,2.15,17.46-9.18,42.39-14.36,55.13,4.95a29.18,29.18,0,0,1,4.08,8.68,36.85,36.85,0,0,1,.8,3.8c.06.74.06,1.47.08,2.21,0,.32-.26,2.49,0,.93a9.4,9.4,0,0,1-.42,1.8c-.54,1.4.58-1.17,0,.13-.82,1.72,1.19-1.07-.64.91-1.12,1.21-2.32,2.35-3.55,3.45a105.33,105.33,0,0,1-11.51,8.78l7.27,9.42c10.28-9.28,25.3-6.73,35.21,1.82,11,9.49,14.43,24.31,6.9,37.06a45.83,45.83,0,0,1-9.19,10.83,39.06,39.06,0,0,0-3.54,3c-.86,1-1.71,1.63.37,1.09-.11,0-.24,0-.35,0a23.62,23.62,0,0,1-4.37,0l-22.87.19L166.14,625.4l-46.92.39c-7.71.07-7.73,12.07,0,12l133-1.11,82.33-.69,21.24-.18c2.68,0,4.36-.12,6.85-1.79,8.81-5.89,16.68-14.33,20.87-24.12,7.73-18,.7-37.83-14.7-49.24-14.78-11-34.8-11.75-48.79.89-5,4.52,1.58,13.24,7.27,9.42,6.89-4.61,16.26-10.27,20.19-17.82,2.83-5.43,2.16-12.37.5-18a42.85,42.85,0,0,0-35.85-30.24c-14.31-1.77-28.4,3.18-40.89,9.75l8.21,2.15c-13-17.92-32.29-31.48-55.33-28.72A60.38,60.38,0,0,0,180,516.52a39.33,39.33,0,0,0-5.57,25.87l5.78-7.6c-24.52-.17-52.45,5-69,24.86A56.78,56.78,0,0,0,115,636C120.5,641.45,129,633,123.47,627.55Z" transform="translate(0 0)"/><polygon class="cls-3" points="299.22 636.27 254.22 636.68 254.22 623.27 299.22 623.27 299.22 636.27"/><polygon class="cls-3" points="334.22 636 317.22 636.2 317.22 623.79 334.22 623.79 334.22 636"/><polygon class="cls-3" points="812.8 488.2 767.8 488.6 767.8 475.2 812.8 475.2 812.8 488.2"/><polygon class="cls-3" points="847.8 487.73 830.8 487.93 830.8 475.52 847.8 475.52 847.8 487.73"/></g><g id="Layer_7" data-name="Layer 7"><path class="cls-10" d="M745,101.79H37.37A27.15,27.15,0,0,1,10.22,74.65V33.94A27.15,27.15,0,0,1,37.37,6.79H744.22" transform="translate(0 0)"/><path class="cls-3" d="M745,95.79H48.53c-3.35,0-6.7,0-10.05,0-12.44-.07-22.06-9-22.26-21.63-.2-13.26-.22-26.58,0-39.84.22-12.64,9.92-21.46,22.31-21.53,10,0,20,0,30,0H744.22c7.73,0,7.74-12,0-12H45.59c-2.64,0-5.29,0-7.93,0A33.7,33.7,0,0,0,4.22,34.69C4.12,48,4,61.26,4.22,74.53a33.67,33.67,0,0,0,33.57,33.26c9,.14,17.93,0,26.89,0H745c7.72,0,7.73-12,0-12Z" transform="translate(0 0)"/><text class="cls-11" transform="translate(45.08 69.94)">https://<tspan class="cls-12" x="164.53" y="0">b</tspan><tspan class="cls-13" x="211.04" y="0">r</tspan><tspan class="cls-12" x="239.27" y="0">andkamu</tspan><tspan x="546.08" y="0">.com</tspan></text></g><g id="Layer_8" data-name="Layer 8"><text class="cls-14" transform="translate(690.34 227.97)">seller</text><text class="cls-14" transform="translate(31.51 226.85)"><tspan class="cls-15">b</tspan><tspan x="42.79" y="0">u</tspan><tspan class="cls-16" x="86.27" y="0">y</tspan><tspan x="124.28" y="0">er</tspan></text><circle class="cls-17" cx="573.06" cy="325.68" r="60"/><path class="cls-18" d="M573.56,325.18v-60c-26,0-61,21-61,60Z" transform="translate(0 0)"/><text class="cls-14" transform="translate(433.67 671.96)">admin</text><text class="cls-14" transform="translate(205.67 723.96)">dashboard</text></g><g id="Layer_9" data-name="Layer 9"><path class="cls-19" d="M75.26,274H99.78a7.72,7.72,0,0,1,7.63,6.55l11.77,76.68a7.72,7.72,0,0,0,7.63,6.55h97a7.72,7.72,0,0,0,7.64-6.55L243,282.12a7.72,7.72,0,0,0-6.93-8.86L76,258.59a7.73,7.73,0,0,0-8.43,8h0A7.74,7.74,0,0,0,75.26,274Z" transform="translate(0 0)"/><circle cx="145.22" cy="372.79" r="20"/><circle cx="206.22" cy="372.79" r="20"/><polygon class="cls-20" points="709.22 434.79 844.22 434.79 844.22 447.06 827.9 447.06 826.18 618.79 709.22 618.79 709.22 434.79"/><path class="cls-21" d="M709.22,440.79h135l-6-6v12.27l6-6H827.9a6.1,6.1,0,0,0-6,6l-.58,57.87-.92,92.42-.22,21.44,6-6h-117l6,6v-184c0-7.72-12-7.73-12,0v184a6.08,6.08,0,0,0,6,6h117a6.09,6.09,0,0,0,6-6l.58-57.87.93-92.42.21-21.44-6,6h16.32a6.08,6.08,0,0,0,6-6V434.79a6.08,6.08,0,0,0-6-6h-135C701.5,428.79,701.49,440.79,709.22,440.79Z" transform="translate(0 0)"/><line class="cls-22" x1="740.22" y1="492.79" x2="792.22" y2="492.79"/><line class="cls-22" x1="739.22" y1="469.79" x2="791.22" y2="469.79"/><line class="cls-22" x1="740.22" y1="517.79" x2="792.22" y2="517.79"/><line class="cls-22" x1="740.22" y1="543.79" x2="792.22" y2="543.79"/></g></svg>